<mxfile host="app.diagrams.net" modified="2021-09-22T07:52:08.290Z" agent="5.0 (Windows NT 10.0; Win64; x64) AppleWebKit/537.36 (KHTML, like Gecko) Chrome/93.0.4577.82 Safari/537.36 Edg/93.0.961.52" etag="kWfCSPMTHLsPVsb-m7Z3" version="15.1.0" type="github">
  <diagram id="bt6pvRwh6wgqpF-Q-4Bc" name="第 1 页">
    <mxGraphModel dx="1161" dy="813" grid="1" gridSize="10" guides="1" tooltips="1" connect="1" arrows="1" fold="1" page="1" pageScale="1" pageWidth="827" pageHeight="1169" math="0" shadow="0">
      <root>
        <mxCell id="0" />
        <mxCell id="1" parent="0" />
        <mxCell id="YESNKbEu8jKJq_URxCkL-3" value="&#xa;&#xa;&lt;span style=&quot;color: rgb(0, 0, 0); font-family: helvetica; font-size: 12px; font-style: normal; font-weight: 400; letter-spacing: normal; text-align: center; text-indent: 0px; text-transform: none; word-spacing: 0px; background-color: rgb(248, 249, 250); display: inline; float: none;&quot;&gt;调用登录接口&lt;/span&gt;&lt;br style=&quot;color: rgb(0, 0, 0); font-family: helvetica; font-size: 12px; font-style: normal; font-weight: 400; letter-spacing: normal; text-align: center; text-indent: 0px; text-transform: none; word-spacing: 0px; background-color: rgb(248, 249, 250);&quot;&gt;&lt;span style=&quot;color: rgb(0, 0, 0); font-family: helvetica; font-size: 12px; font-style: normal; font-weight: 400; letter-spacing: normal; text-align: center; text-indent: 0px; text-transform: none; word-spacing: 0px; background-color: rgb(248, 249, 250); display: inline; float: none;&quot;&gt;(设备信息&lt;/span&gt;&lt;br style=&quot;color: rgb(0, 0, 0); font-family: helvetica; font-size: 12px; font-style: normal; font-weight: 400; letter-spacing: normal; text-align: center; text-indent: 0px; text-transform: none; word-spacing: 0px; background-color: rgb(248, 249, 250);&quot;&gt;&lt;span style=&quot;color: rgb(0, 0, 0); font-family: helvetica; font-size: 12px; font-style: normal; font-weight: 400; letter-spacing: normal; text-align: center; text-indent: 0px; text-transform: none; word-spacing: 0px; background-color: rgb(248, 249, 250); display: inline; float: none;&quot;&gt;用户信息)&lt;/span&gt;&#xa;&#xa;" style="edgeStyle=orthogonalEdgeStyle;rounded=0;orthogonalLoop=1;jettySize=auto;html=1;" edge="1" parent="1" source="YESNKbEu8jKJq_URxCkL-1" target="YESNKbEu8jKJq_URxCkL-4">
          <mxGeometry relative="1" as="geometry">
            <mxPoint x="145" y="240" as="targetPoint" />
          </mxGeometry>
        </mxCell>
        <mxCell id="YESNKbEu8jKJq_URxCkL-1" value="app" style="rounded=1;whiteSpace=wrap;html=1;" vertex="1" parent="1">
          <mxGeometry x="110" y="110" width="130" height="30" as="geometry" />
        </mxCell>
        <mxCell id="YESNKbEu8jKJq_URxCkL-5" style="edgeStyle=orthogonalEdgeStyle;rounded=0;orthogonalLoop=1;jettySize=auto;html=1;" edge="1" parent="1" source="YESNKbEu8jKJq_URxCkL-4" target="YESNKbEu8jKJq_URxCkL-9">
          <mxGeometry relative="1" as="geometry">
            <mxPoint x="175" y="510" as="targetPoint" />
          </mxGeometry>
        </mxCell>
        <mxCell id="YESNKbEu8jKJq_URxCkL-6" value="成功" style="edgeLabel;html=1;align=center;verticalAlign=middle;resizable=0;points=[];" vertex="1" connectable="0" parent="YESNKbEu8jKJq_URxCkL-5">
          <mxGeometry x="-0.2278" y="-2" relative="1" as="geometry">
            <mxPoint as="offset" />
          </mxGeometry>
        </mxCell>
        <mxCell id="YESNKbEu8jKJq_URxCkL-8" value="失败" style="edgeStyle=orthogonalEdgeStyle;rounded=0;orthogonalLoop=1;jettySize=auto;html=1;" edge="1" parent="1" source="YESNKbEu8jKJq_URxCkL-4" target="YESNKbEu8jKJq_URxCkL-7">
          <mxGeometry relative="1" as="geometry" />
        </mxCell>
        <mxCell id="YESNKbEu8jKJq_URxCkL-4" value="登录" style="rhombus;whiteSpace=wrap;html=1;" vertex="1" parent="1">
          <mxGeometry x="135" y="310" width="80" height="80" as="geometry" />
        </mxCell>
        <mxCell id="YESNKbEu8jKJq_URxCkL-11" value="1.用户未授权" style="edgeStyle=orthogonalEdgeStyle;rounded=0;orthogonalLoop=1;jettySize=auto;html=1;" edge="1" parent="1" source="YESNKbEu8jKJq_URxCkL-7" target="YESNKbEu8jKJq_URxCkL-10">
          <mxGeometry relative="1" as="geometry" />
        </mxCell>
        <mxCell id="YESNKbEu8jKJq_URxCkL-14" value="" style="edgeStyle=orthogonalEdgeStyle;rounded=0;orthogonalLoop=1;jettySize=auto;html=1;" edge="1" parent="1" source="YESNKbEu8jKJq_URxCkL-7" target="YESNKbEu8jKJq_URxCkL-13">
          <mxGeometry relative="1" as="geometry">
            <Array as="points">
              <mxPoint x="360" y="430" />
            </Array>
          </mxGeometry>
        </mxCell>
        <mxCell id="YESNKbEu8jKJq_URxCkL-15" value="2.设备绑定用户已经超限" style="edgeLabel;html=1;align=center;verticalAlign=middle;resizable=0;points=[];" vertex="1" connectable="0" parent="YESNKbEu8jKJq_URxCkL-14">
          <mxGeometry x="0.0667" y="-4" relative="1" as="geometry">
            <mxPoint as="offset" />
          </mxGeometry>
        </mxCell>
        <mxCell id="YESNKbEu8jKJq_URxCkL-7" value="失败原因" style="rhombus;whiteSpace=wrap;html=1;" vertex="1" parent="1">
          <mxGeometry x="320" y="310" width="80" height="80" as="geometry" />
        </mxCell>
        <mxCell id="YESNKbEu8jKJq_URxCkL-9" value="登录成功" style="rounded=1;whiteSpace=wrap;html=1;" vertex="1" parent="1">
          <mxGeometry x="112.5" y="480" width="125" height="40" as="geometry" />
        </mxCell>
        <mxCell id="YESNKbEu8jKJq_URxCkL-17" style="edgeStyle=orthogonalEdgeStyle;rounded=0;orthogonalLoop=1;jettySize=auto;html=1;entryX=0;entryY=0.25;entryDx=0;entryDy=0;" edge="1" parent="1" source="YESNKbEu8jKJq_URxCkL-10" target="YESNKbEu8jKJq_URxCkL-16">
          <mxGeometry relative="1" as="geometry" />
        </mxCell>
        <mxCell id="YESNKbEu8jKJq_URxCkL-10" value="app发起申请授权" style="whiteSpace=wrap;html=1;" vertex="1" parent="1">
          <mxGeometry x="560" y="320" width="120" height="60" as="geometry" />
        </mxCell>
        <mxCell id="YESNKbEu8jKJq_URxCkL-18" style="edgeStyle=orthogonalEdgeStyle;rounded=0;orthogonalLoop=1;jettySize=auto;html=1;entryX=0;entryY=0.75;entryDx=0;entryDy=0;" edge="1" parent="1" source="YESNKbEu8jKJq_URxCkL-13" target="YESNKbEu8jKJq_URxCkL-16">
          <mxGeometry relative="1" as="geometry" />
        </mxCell>
        <mxCell id="YESNKbEu8jKJq_URxCkL-13" value="app发起申请授权" style="whiteSpace=wrap;html=1;" vertex="1" parent="1">
          <mxGeometry x="560" y="410" width="120" height="60" as="geometry" />
        </mxCell>
        <mxCell id="YESNKbEu8jKJq_URxCkL-16" value="PC端进行授权" style="rounded=1;whiteSpace=wrap;html=1;" vertex="1" parent="1">
          <mxGeometry x="800" y="360" width="120" height="60" as="geometry" />
        </mxCell>
        <mxCell id="YESNKbEu8jKJq_URxCkL-26" value="1：N" style="edgeStyle=orthogonalEdgeStyle;rounded=0;orthogonalLoop=1;jettySize=auto;html=1;" edge="1" parent="1" source="YESNKbEu8jKJq_URxCkL-19" target="YESNKbEu8jKJq_URxCkL-25">
          <mxGeometry relative="1" as="geometry" />
        </mxCell>
        <mxCell id="YESNKbEu8jKJq_URxCkL-19" value="&lt;b&gt;设备&lt;/b&gt;&lt;br&gt;设备mac&lt;br&gt;工作组&lt;br&gt;限制用户数" style="whiteSpace=wrap;html=1;" vertex="1" parent="1">
          <mxGeometry x="130" y="645" width="100" height="80" as="geometry" />
        </mxCell>
        <mxCell id="YESNKbEu8jKJq_URxCkL-22" value="后台信息" style="text;html=1;align=center;verticalAlign=middle;resizable=0;points=[];autosize=1;strokeColor=none;fillColor=none;" vertex="1" parent="1">
          <mxGeometry x="145" y="625" width="60" height="20" as="geometry" />
        </mxCell>
        <mxCell id="YESNKbEu8jKJq_URxCkL-25" value="&lt;b&gt;用户&lt;/b&gt;&lt;br&gt;用户id&lt;br&gt;工作组" style="whiteSpace=wrap;html=1;" vertex="1" parent="1">
          <mxGeometry x="380" y="655" width="120" height="60" as="geometry" />
        </mxCell>
      </root>
    </mxGraphModel>
  </diagram>
</mxfile>
